<svg width="24" height="24" viewBox="0 0 24 24" fill="none" xmlns="http://www.w3.org/2000/svg">
<path d="M16.5 4V4.5H17H19C19.8269 4.5 20.5 5.17314 20.5 6V20C20.5 20.8269 19.8269 21.5 19 21.5H5C4.17314 21.5 3.5 20.8269 3.5 20V6C3.5 5.17314 4.17314 4.5 5 4.5H7H7.5V4V2.5H8.5V4V4.5H9H15H15.5V4V2.5H16.5V4ZM9 18.5H9.5V18V16V15.5H9H7H6.5V16V18V18.5H7H9ZM9 14.5H9.5V14V12V11.5H9H7H6.5V12V14V14.5H7H9ZM13 18.5H13.5V18V16V15.5H13H11H10.5V16V18V18.5H11H13ZM13 14.5H13.5V14V12V11.5H13H11H10.5V12V14V14.5H11H13ZM17 18.5H17.5V18V16V15.5H17H15H14.5V16V18V18.5H15H17ZM17 14.5H17.5V14V12V11.5H17H15H14.5V12V14V14.5H15H17ZM19 9.5H19.5V9V7V6.5H19H5H4.5V7V9V9.5H5H19Z" stroke="#57D138"/>
</svg>
