<svg width="24" height="24" viewBox="0 0 24 24" fill="none" xmlns="http://www.w3.org/2000/svg">
<path fill-rule="evenodd" clip-rule="evenodd" d="M20.781 3.219C20.8508 3.28867 20.9062 3.37143 20.944 3.46255C20.9818 3.55367 21.0013 3.65135 21.0013 3.75C21.0013 3.84865 20.9818 3.94633 20.944 4.03745C20.9062 4.12857 20.8508 4.21133 20.781 4.281L4.28097 20.781C4.14014 20.9218 3.94913 21.0009 3.74997 21.0009C3.55081 21.0009 3.3598 20.9218 3.21897 20.781C3.07814 20.6402 2.99902 20.4492 2.99902 20.25C2.99902 20.0508 3.07814 19.8598 3.21897 19.719L19.719 3.219C19.7886 3.14915 19.8714 3.09374 19.9625 3.05593C20.0536 3.01812 20.1513 2.99866 20.25 2.99866C20.3486 2.99866 20.4463 3.01812 20.5374 3.05593C20.6285 3.09374 20.7113 3.14915 20.781 3.219V3.219Z" fill="white"/>
<path fill-rule="evenodd" clip-rule="evenodd" d="M3.219 3.219C3.14915 3.28867 3.09374 3.37143 3.05593 3.46255C3.01812 3.55367 2.99866 3.65135 2.99866 3.75C2.99866 3.84865 3.01812 3.94633 3.05593 4.03745C3.09374 4.12857 3.14915 4.21133 3.219 4.281L19.719 20.781C19.8598 20.9218 20.0508 21.0009 20.25 21.0009C20.4492 21.0009 20.6402 20.9218 20.781 20.781C20.9218 20.6402 21.0009 20.4492 21.0009 20.25C21.0009 20.0508 20.9218 19.8598 20.781 19.719L4.281 3.219C4.21133 3.14915 4.12857 3.09374 4.03745 3.05593C3.94633 3.01812 3.84865 2.99866 3.75 2.99866C3.65135 2.99866 3.55367 3.01812 3.46255 3.05593C3.37143 3.09374 3.28867 3.14915 3.219 3.219V3.219Z" fill="white"/>
</svg>
